<svg xmlns="http://www.w3.org/2000/svg" width="256" height="256" viewBox="0 0 100 100"><rect width="100" height="100" rx="20" fill="#0ea5e9"></rect><path fill="#fff" d="M45.05 59.90Q47.80 59.05 50.41 57.78Q53.02 56.52 53.42 55.49Q53.83 54.45 54.91 54.45L54.91 54.45Q55.80 54.45 55.80 55.71L55.80 55.71Q55.80 58.86 51.80 61.25Q47.80 63.63 43.74 64.44L43.74 64.44L39.70 65.25Q44.28 65.52 50.63 69.62Q56.97 73.72 56.97 77.85L56.97 77.85Q56.97 78.75 56.34 79.70Q55.72 80.64 54.99 80.64Q54.27 80.64 52.61 78.89Q50.94 77.13 48.78 75.02Q46.63 72.91 42.53 71.15Q38.44 69.39 33.75 69.39L33.75 69.39L31.86 69.39Q31.41 69.39 31.41 68.72Q31.41 68.05 33.03 65.48Q34.66 62.91 35.24 62.73Q35.83 62.55 39.06 61.66Q42.30 60.75 45.05 59.90ZM67.87 29.25L67.87 29.25L67.69 80.38Q67.69 82.44 68.14 85.28Q68.59 88.11 68.59 88.74L68.59 88.74Q68.59 90.63 66.47 90.63Q64.36 90.63 63.68 90.14Q63.01 89.64 63.01 87.75L63.01 87.75Q63.01 87.75 64.09 24.03L64.09 24.03Q64.09 19.45 62.65 13.05L62.65 13.05Q62.83 11.80 63.91 10.58Q64.98 9.36 65.84 9.36Q66.70 9.36 67.06 10.36L67.06 10.36Q67.87 12.69 67.87 29.25Z"></path></svg>